<svg xmlns="http://www.w3.org/2000/svg" viewBox="0 0 64 64" fill="none">
  <path fill="#1df0bb" d="M19 7h22l10 10v21H13V13l6-6Z"/>
  <path fill="#9275ff" d="M41 7v10h10L41 7Z"/>
  <circle cx="32" cy="24" r="11" fill="#080a09"/>
  <circle cx="32" cy="24" r="6" fill="#9275ff"/>
  <circle cx="34" cy="22" r="2" fill="#080a09"/>
  <path fill="#1df0bb" d="M12 42h40l6 7v3H6v-3l6-7Z"/>
  <path stroke="#080a09" stroke-linecap="round" stroke-width="3" d="M25 47h14"/>
  <path fill="#1df0bb" d="M12 52h10v4a3 3 0 0 1-3 3h-4a3 3 0 0 1-3-3v-4Zm30 0h10v4a3 3 0 0 1-3 3h-4a3 3 0 0 1-3-3v-4Z"/>
</svg>